<svg width="158" height="97" viewBox="0 0 158 97" fill="none" xmlns="http://www.w3.org/2000/svg">
<path d="M118.212 0H34.0738C32.9725 0 32.0797 0.89279 32.0797 1.9941V29.681C32.0797 30.7823 32.9725 31.6751 34.0738 31.6751H118.212C119.314 31.6751 120.206 30.7823 120.206 29.681V1.9941C120.206 0.89279 119.314 0 118.212 0Z" fill="#B20051"/>
<path d="M90.5426 24.2978V24.1768L90.3985 25.2603H85.2346L89.1882 6.54688H96.9341L100.755 25.2603H95.5509L94.8477 20.7131C92.1505 21.2663 90.5426 24.1711 90.5426 24.1711V24.2978ZM94.3175 17.4165L93.1533 10.806H92.8536L91.2399 19.1916C91.2399 19.1916 92.5655 17.4165 94.3175 17.4165Z" fill="white"/>
<path d="M58.4696 24.4246C57.2766 23.6639 56.3602 22.5515 55.732 21.0934C55.1038 19.6295 54.7868 17.8775 54.7868 15.82C54.7868 13.7625 55.1038 12.1315 55.7435 10.7079C56.3832 9.28441 57.2938 8.19515 58.4811 7.44015C59.6683 6.69092 61.0919 6.31055 62.7575 6.31055C64.423 6.31055 65.7947 6.68516 66.982 7.44015C68.1692 8.19515 69.0798 9.28441 69.7195 10.7079C70.3592 12.1315 70.6762 13.8374 70.6762 15.82C70.6762 17.8026 70.3592 19.6065 69.7195 21.0646C69.0798 22.5285 68.1692 23.6408 66.982 24.4131C65.7947 25.1854 64.3885 25.5715 62.7575 25.5715C61.1264 25.5715 59.6626 25.1911 58.4696 24.4304V24.4246ZM63.864 20.35C64.1579 20.0214 64.3712 19.497 64.5153 18.7708C64.6593 18.0446 64.7285 17.0994 64.7285 15.9295C64.7285 14.7595 64.6593 13.8374 64.5153 13.117C64.3712 12.3908 64.1579 11.8664 63.864 11.5379C63.5701 11.2094 63.207 11.048 62.7632 11.048C62.3194 11.048 61.9275 11.2094 61.6336 11.5379C61.3397 11.8664 61.1207 12.3908 60.9708 13.117C60.821 13.8432 60.7461 14.7826 60.7461 15.9295C60.7461 17.0764 60.821 18.0446 60.9708 18.7708C61.1207 19.497 61.3454 20.0214 61.6336 20.35C61.9218 20.6785 62.3022 20.8398 62.7632 20.8398C63.2243 20.8398 63.5758 20.6785 63.864 20.35Z" fill="white"/>
<path d="M75.6444 19.1699L70.0367 6.62891H76.2553L78.4339 13.591L80.6412 6.62891H86.9347L81.2752 19.1699V25.2271H75.6444V19.1699Z" fill="white"/>
<path d="M102.369 6.62891H108.08V23.2042L105.665 20.7893H114.402V25.2271H102.369V6.62891Z" fill="white"/>
<path d="M46.8623 19.5318H44.6261V25.1914H39.6293V6.44336H46.6029C48.6258 6.44336 50.1646 6.96782 51.2136 8.01674C52.2683 9.06566 52.7927 10.5641 52.7927 12.5064V12.8464C52.7927 14.7079 52.2394 16.2179 51.1329 17.3648C51.1329 17.3648 51.1271 17.3648 51.1329 17.3763C51.2309 17.5031 54.3142 21.5951 54.3142 25.1914H49.2079C49.1618 20.5346 46.868 19.5318 46.868 19.5318H46.8623ZM44.6665 15.6301H45.6347C47.0121 15.6301 47.698 14.8117 47.698 13.1691V12.9674C47.698 12.2124 47.5193 11.6361 47.162 11.2442C46.8046 10.8523 46.2975 10.6506 45.6347 10.6506H44.6665V15.6301Z" fill="white"/>
<path d="M132.655 65.1074H21.567C20.4657 65.1074 19.5729 66.0002 19.5729 67.1015V94.7884C19.5729 95.8897 20.4657 96.7825 21.567 96.7825H132.655C133.756 96.7825 134.649 95.8897 134.649 94.7884V67.1015C134.649 66.0002 133.756 65.1074 132.655 65.1074Z" fill="#B20051"/>
<path d="M153.225 25.2957L1.98636 38.6604C0.889325 38.7573 0.0785879 39.7253 0.175531 40.8223L2.61267 68.4017C2.70962 69.4988 3.67753 70.3095 4.77457 70.2126L156.014 56.8479C157.111 56.7509 157.921 55.783 157.824 54.686L155.387 27.1065C155.29 26.0095 154.322 25.1988 153.225 25.2957Z" fill="#B20051"/>
<path d="M108.068 53.5871L108.057 53.4661L108.011 54.5496L102.916 55.0164L105.123 36.1992L112.765 35.4961L118.229 53.6044L113.1 54.077L111.993 49.6565C109.388 50.4461 108.057 53.4603 108.057 53.4603L108.068 53.5871ZM111.169 46.4579L109.423 40.0433L109.129 40.0722L108.293 48.4923C108.293 48.4923 109.44 46.6193 111.169 46.4637V46.4579Z" fill="white"/>
<path d="M7.23969 45.2421L13.32 44.6831L16.5762 56.8321L17.7231 44.2796L23.8783 43.7148L21.0831 62.4686L13.3776 63.1775L7.23969 45.2421Z" fill="white"/>
<path d="M29.2785 60.9237C28.0279 60.284 27.0309 59.2696 26.2759 57.8865C25.5209 56.5033 25.054 54.7973 24.8696 52.7686C24.6852 50.74 24.8523 49.1032 25.348 47.6393C25.8494 46.1754 26.6505 45.017 27.7513 44.1698C28.8521 43.3226 30.2237 42.8212 31.8663 42.6713C33.4742 42.5215 34.8978 42.7693 36.1369 43.4033C37.376 44.0372 38.373 45.0285 39.1338 46.3771C39.8945 47.7257 40.3614 49.3798 40.54 51.3336C40.7245 53.345 40.5688 55.097 40.0732 56.5955C39.5776 58.0939 38.7765 59.2754 37.6757 60.1457C36.5749 61.0159 35.2205 61.5231 33.6125 61.6672C32.0046 61.8113 30.5234 61.5692 29.2785 60.9295V60.9237ZM34.2292 56.411C34.4886 56.0595 34.6557 55.5235 34.7306 54.7916C34.8055 54.0654 34.7883 53.1202 34.6845 51.9675C34.5808 50.8322 34.4252 49.9158 34.2177 49.2127C34.0102 48.5096 33.7509 48.0081 33.4339 47.7142C33.1169 47.4203 32.7365 47.2877 32.3043 47.3281C31.872 47.3684 31.4916 47.5644 31.2381 47.9159C30.9787 48.2675 30.8058 48.8035 30.7251 49.5354C30.6444 50.2674 30.656 51.1953 30.7597 52.3306C30.8634 53.4833 31.0248 54.4112 31.2381 55.1143C31.4513 55.8174 31.7164 56.3188 32.0392 56.6128C32.3561 56.9125 32.7423 57.0392 33.1976 56.9931C33.6529 56.947 33.9814 56.7568 34.2407 56.411H34.2292Z" fill="white"/>
<path d="M41.5142 42.0949L47.1507 41.5762L48.6549 57.9267L46.0499 55.7597L54.6718 54.9701L55.0752 59.3444L43.2028 60.4337L41.5199 42.0891L41.5142 42.0949Z" fill="white"/>
<path d="M59.3631 58.5025C58.2219 58.0818 57.3344 57.3613 56.6947 56.3412C56.0549 55.3269 55.663 54.0129 55.5132 52.4049L54.4585 40.9013L60.1181 40.3827L61.2131 52.3069C61.2765 52.9697 61.4724 53.4769 61.8009 53.8284C62.1295 54.1742 62.5675 54.3241 63.1092 54.278C63.651 54.2319 64.0544 54.0013 64.3137 53.5979C64.5789 53.1945 64.6768 52.6585 64.6134 51.9957L63.5184 40.0714L69.178 39.5527L70.2327 51.0563C70.3825 52.6642 70.2327 54.0244 69.7889 55.1367C69.3451 56.2548 68.6016 57.125 67.5585 57.7475C66.5153 58.3699 65.1725 58.7618 63.5299 58.9117C61.8874 59.0615 60.4984 58.9232 59.3573 58.5025H59.3631Z" fill="white"/>
<path d="M71.5175 39.3349L78.4622 38.6952L83.2746 50.8039L82.6003 50.948L81.4476 38.4243L86.2139 37.9863L87.8968 56.3309L81.7127 56.9015L75.9033 43.4038L76.6295 43.2309L77.9147 57.2473L73.2003 57.6795L71.5175 39.3349Z" fill="white"/>
<path d="M87.7353 37.8469L102.276 36.5098L102.691 41.0455L88.1502 42.3826L87.7353 37.8469ZM92.5649 41.5527L98.2015 41.034L99.5097 55.2636L93.8732 55.7823L92.5649 41.5527Z" fill="white"/>
<path d="M138.723 45.6341L132.055 33.7733L138.187 33.2085L140.965 39.8766L142.51 32.8108L148.723 32.2402L144.279 45.1212L144.827 51.0978L139.271 51.6107L138.723 45.6341Z" fill="white"/>
<path d="M126.655 47.2014L124.448 47.4031L124.961 52.982L120.027 53.4373L118.327 34.9428L125.209 34.3089C127.203 34.1244 128.765 34.5048 129.9 35.4442C131.035 36.3837 131.687 37.813 131.865 39.7321L131.894 40.0664C132.061 41.9049 131.652 43.4379 130.666 44.6713C130.666 44.6713 130.661 44.677 130.666 44.6828C130.776 44.7981 134.188 48.5557 134.511 52.1059L129.473 52.567C129.007 47.9794 126.655 47.2014 126.649 47.1956L126.655 47.2014ZM124.137 43.5474L125.093 43.461C126.448 43.3342 127.053 42.4639 126.909 40.8444L126.892 40.6427C126.822 39.8993 126.592 39.346 126.206 38.9887C125.814 38.6313 125.295 38.4815 124.65 38.5449L123.693 38.6313L124.142 43.5417L124.137 43.5474Z" fill="white"/>
<path d="M30.8747 89.3425C29.7451 88.9621 28.7769 88.4665 27.97 87.8498V83.0663C28.8 83.7348 29.7336 84.2766 30.771 84.68C31.8084 85.0834 32.8573 85.2909 33.9178 85.2909C34.5172 85.2909 34.9552 85.1929 35.2376 84.9855C35.52 84.7837 35.6583 84.4783 35.6583 84.0749C35.6583 83.706 35.5546 83.4236 35.3528 83.2276C35.1511 83.0317 34.765 82.8473 34.2059 82.6744L32.5403 82.173C30.8863 81.6773 29.6875 81.003 28.944 80.1385C28.2063 79.274 27.8317 78.1271 27.8317 76.7036C27.8317 75.5221 28.0911 74.4905 28.6098 73.5972C29.1285 72.7096 29.9123 72.0123 30.9612 71.5109C32.0101 71.0094 33.3069 70.7559 34.8572 70.7559C36.1597 70.7559 37.2835 70.9288 38.2287 71.2861C39.1681 71.6376 39.9577 72.0641 40.5917 72.554V76.9399C40.0269 76.4788 39.3007 76.0869 38.4132 75.7526C37.5256 75.4184 36.5574 75.2512 35.52 75.2512C34.8341 75.2512 34.3327 75.355 34.0273 75.5567C33.7161 75.7584 33.5662 76.0639 33.5662 76.4673C33.5662 76.767 33.67 77.0033 33.8717 77.1704C34.0734 77.3375 34.5114 77.5104 35.1799 77.6833L36.7937 78.1098C38.4131 78.5306 39.5889 79.1645 40.3208 80.0002C41.0527 80.8359 41.4158 82.0577 41.4158 83.6599C41.4158 84.9278 41.1277 86.0344 40.5571 86.9738C39.9865 87.919 39.1797 88.6452 38.1365 89.1523C37.0991 89.6653 35.8888 89.9188 34.5172 89.9188C33.1455 89.9188 31.9986 89.7287 30.869 89.3483L30.8747 89.3425Z" fill="white"/>
<path d="M55.9284 85.1578V89.5725H43.1396V71.0723H55.5076V75.487H48.8222V85.1578H55.9284ZM54.793 78.0459V82.0917H48.3957V78.0459H54.793Z" fill="white"/>
<path d="M72.7339 71.0723H78.866L81.0042 83.521L83.3038 71.0723H89.5166L84.9982 89.5725H77.2293L72.7339 71.0723Z" fill="white"/>
<path d="M90.894 71.0723H96.5767V89.5725H90.894V71.0723Z" fill="white"/>
<path d="M102.161 88.7489C100.916 87.9766 99.977 86.8701 99.3316 85.4465C98.6861 84.0172 98.3691 82.3459 98.3691 80.4267C98.3691 78.5075 98.6976 76.767 99.3604 75.3146C100.023 73.8623 100.98 72.7384 102.242 71.9431C103.504 71.1478 105.014 70.7559 106.772 70.7559C107.844 70.7559 108.829 70.8942 109.717 71.1766C110.605 71.459 111.308 71.8221 111.821 72.2601V76.8073C111.434 76.4212 110.933 76.0927 110.328 75.816C109.723 75.5452 109.02 75.4068 108.224 75.4068C107.36 75.4068 106.645 75.5855 106.069 75.9486C105.498 76.3117 105.06 76.8592 104.761 77.5854C104.461 78.3173 104.311 79.2222 104.311 80.2941C104.311 81.3661 104.461 82.2998 104.761 83.0317C105.06 83.7636 105.498 84.3112 106.08 84.6858C106.662 85.0604 107.383 85.239 108.247 85.239C109.112 85.239 109.838 85.0777 110.426 84.7492C111.014 84.4264 111.486 84.0403 111.838 83.6023V88.1495C111.239 88.7143 110.501 89.1466 109.619 89.4578C108.737 89.7632 107.74 89.9188 106.634 89.9188C104.887 89.9188 103.395 89.5327 102.156 88.7547L102.161 88.7489Z" fill="white"/>
<path d="M126.569 85.1578V89.5725H113.78V71.0723H126.148V75.487H119.463V85.1578H126.569ZM125.433 78.0459V82.0917H119.036V78.0459H125.433Z" fill="white"/>
<path d="M65.1666 84.0173H62.942V89.6481H57.9683V70.998H64.9073C66.9187 70.998 68.4459 71.5225 69.4949 72.5657C70.5438 73.6088 71.0682 75.1015 71.0682 77.0322V77.3723C71.0682 79.228 70.515 80.7265 69.4142 81.8676C69.4142 81.8676 69.4084 81.8676 69.4142 81.8792C69.5122 82.006 72.5782 86.0748 72.5782 89.6539H67.5008C67.4547 85.0202 65.1782 84.0289 65.1724 84.0231L65.1666 84.0173ZM62.9766 80.1329H63.939C65.3049 80.1329 65.9908 79.3145 65.9908 77.6835V77.4818C65.9908 76.7325 65.8121 76.1562 65.4548 75.7643C65.0975 75.3724 64.5903 75.1764 63.939 75.1764H62.9766V80.1329Z" fill="white"/>
</svg>
